<mxfile host="65bd71144e">
    <diagram id="J_-E8iECscZHsoJNrdkX" name="Page-1">
        <mxGraphModel dx="1503" dy="1623" grid="1" gridSize="10" guides="1" tooltips="1" connect="1" arrows="1" fold="1" page="1" pageScale="1" pageWidth="850" pageHeight="1100" math="0" shadow="0">
            <root>
                <mxCell id="0"/>
                <mxCell id="1" parent="0"/>
                <mxCell id="12" value="" style="shape=flexArrow;endArrow=classic;html=1;entryX=0;entryY=0.5;entryDx=0;entryDy=0;startArrow=none;startFill=0;fillColor=default;" parent="1" edge="1">
                    <mxGeometry width="50" height="50" relative="1" as="geometry">
                        <mxPoint x="490" y="-360" as="sourcePoint"/>
                        <mxPoint x="530" y="-280" as="targetPoint"/>
                        <Array as="points">
                            <mxPoint x="490" y="-280"/>
                        </Array>
                    </mxGeometry>
                </mxCell>
                <mxCell id="2" value="CPU" style="whiteSpace=wrap;html=1;aspect=fixed;" parent="1" vertex="1">
                    <mxGeometry x="370" y="-400" width="80" height="80" as="geometry"/>
                </mxCell>
                <mxCell id="3" value="sensor 1" style="rounded=1;whiteSpace=wrap;html=1;" parent="1" vertex="1">
                    <mxGeometry x="530" y="-470" width="120" height="60" as="geometry"/>
                </mxCell>
                <mxCell id="4" value="sensor 3" style="rounded=1;whiteSpace=wrap;html=1;" parent="1" vertex="1">
                    <mxGeometry x="530" y="-310" width="120" height="60" as="geometry"/>
                </mxCell>
                <mxCell id="5" value="sensor 2" style="rounded=1;whiteSpace=wrap;html=1;" parent="1" vertex="1">
                    <mxGeometry x="530" y="-390" width="120" height="60" as="geometry"/>
                </mxCell>
                <mxCell id="11" value="" style="shape=flexArrow;endArrow=classic;html=1;entryX=0;entryY=0.5;entryDx=0;entryDy=0;fillColor=default;" parent="1" target="3" edge="1">
                    <mxGeometry width="50" height="50" relative="1" as="geometry">
                        <mxPoint x="490" y="-360" as="sourcePoint"/>
                        <mxPoint x="520" y="-440" as="targetPoint"/>
                        <Array as="points">
                            <mxPoint x="490" y="-440"/>
                        </Array>
                    </mxGeometry>
                </mxCell>
                <mxCell id="10" value="" style="shape=flexArrow;endArrow=classic;startArrow=classic;html=1;exitX=1;exitY=0.5;exitDx=0;exitDy=0;entryX=0;entryY=0.5;entryDx=0;entryDy=0;fillColor=default;strokeColor=default;gradientColor=none;" parent="1" source="2" target="5" edge="1">
                    <mxGeometry width="100" height="100" relative="1" as="geometry">
                        <mxPoint x="580" y="-230" as="sourcePoint"/>
                        <mxPoint x="680" y="-330" as="targetPoint"/>
                    </mxGeometry>
                </mxCell>
                <mxCell id="13" value="" style="rounded=0;whiteSpace=wrap;html=1;strokeColor=#FFFFFF;rotation=0;" parent="1" vertex="1">
                    <mxGeometry x="486" y="-381" width="8" height="60" as="geometry"/>
                </mxCell>
                <mxCell id="16" value="power&lt;br&gt;manager" style="ellipse;shape=cloud;whiteSpace=wrap;html=1;strokeColor=#000000;" parent="1" vertex="1">
                    <mxGeometry x="370" y="-570" width="170" height="90" as="geometry"/>
                </mxCell>
                <mxCell id="17" value="" style="endArrow=none;dashed=1;html=1;dashPattern=1 3;strokeWidth=2;strokeColor=#666666;fillColor=#f5f5f5;" parent="1" source="3" target="16" edge="1">
                    <mxGeometry width="50" height="50" relative="1" as="geometry">
                        <mxPoint x="550" y="-390" as="sourcePoint"/>
                        <mxPoint x="600" y="-440" as="targetPoint"/>
                    </mxGeometry>
                </mxCell>
                <mxCell id="18" value="" style="endArrow=none;dashed=1;html=1;dashPattern=1 3;strokeWidth=2;strokeColor=#666666;fillColor=#f5f5f5;exitX=0;exitY=0;exitDx=0;exitDy=0;" parent="1" source="5" target="16" edge="1">
                    <mxGeometry width="50" height="50" relative="1" as="geometry">
                        <mxPoint x="550" y="-390" as="sourcePoint"/>
                        <mxPoint x="600" y="-440" as="targetPoint"/>
                    </mxGeometry>
                </mxCell>
                <mxCell id="19" value="" style="endArrow=none;dashed=1;html=1;dashPattern=1 3;strokeWidth=2;strokeColor=#666666;fillColor=#f5f5f5;entryX=0.469;entryY=0.959;entryDx=0;entryDy=0;entryPerimeter=0;exitX=0;exitY=0;exitDx=0;exitDy=0;" parent="1" source="4" target="16" edge="1">
                    <mxGeometry width="50" height="50" relative="1" as="geometry">
                        <mxPoint x="550" y="-390" as="sourcePoint"/>
                        <mxPoint x="600" y="-440" as="targetPoint"/>
                    </mxGeometry>
                </mxCell>
                <mxCell id="20" value="" style="endArrow=none;dashed=1;html=1;dashPattern=1 3;strokeWidth=2;strokeColor=#666666;fillColor=#f5f5f5;entryX=0.31;entryY=0.8;entryDx=0;entryDy=0;entryPerimeter=0;exitX=0.5;exitY=0;exitDx=0;exitDy=0;" parent="1" source="2" target="16" edge="1">
                    <mxGeometry width="50" height="50" relative="1" as="geometry">
                        <mxPoint x="550" y="-390" as="sourcePoint"/>
                        <mxPoint x="600" y="-440" as="targetPoint"/>
                    </mxGeometry>
                </mxCell>
                <mxCell id="21" value="workload description" style="shape=note;whiteSpace=wrap;html=1;backgroundOutline=1;darkOpacity=0.05;strokeColor=#000000;" parent="1" vertex="1">
                    <mxGeometry x="620" y="-590" width="80" height="100" as="geometry"/>
                </mxCell>
                <mxCell id="22" value="" style="shape=flexArrow;endArrow=classic;html=1;strokeColor=default;fillColor=default;gradientColor=none;" parent="1" edge="1">
                    <mxGeometry width="50" height="50" relative="1" as="geometry">
                        <mxPoint x="610" y="-535" as="sourcePoint"/>
                        <mxPoint x="540" y="-535" as="targetPoint"/>
                    </mxGeometry>
                </mxCell>
            </root>
        </mxGraphModel>
    </diagram>
</mxfile>